<svg width="9.333618" height="7.059021" viewBox="0 0 9.33362 7.05902" fill="none" xmlns="http://www.w3.org/2000/svg" xmlns:xlink="http://www.w3.org/1999/xlink">
	<desc>
			Created with Pixso.
	</desc>
	<defs/>
	<path id="Контур 1144" d="M3.47 7.05C3.31 7.05 3.15 7.02 3.01 6.96C2.86 6.9 2.73 6.81 2.62 6.7L0.36 4.44C0.24 4.33 0.15 4.19 0.09 4.05C0.03 3.9 0 3.75 0 3.59C-0.01 3.43 0.02 3.27 0.08 3.13C0.14 2.98 0.23 2.85 0.35 2.73C0.46 2.62 0.59 2.53 0.74 2.47C0.88 2.41 1.04 2.38 1.2 2.38C1.36 2.38 1.51 2.42 1.66 2.48C1.81 2.54 1.94 2.63 2.05 2.75L3.47 4.16L7.29 0.35C7.51 0.12 7.81 0 8.13 0C8.45 0 8.75 0.12 8.98 0.35C9.2 0.57 9.33 0.87 9.33 1.19C9.33 1.51 9.2 1.81 8.98 2.04L4.31 6.7C4.09 6.93 3.78 7.05 3.47 7.05Z" fill="#FFFFFF" fill-opacity="1.000000" fill-rule="nonzero"/>
</svg>
