<svg width="14.649994" height="14.649994" viewBox="0 0 14.65 14.65" fill="none" xmlns="http://www.w3.org/2000/svg" xmlns:xlink="http://www.w3.org/1999/xlink">
	<desc>
			Created with Pixso.
	</desc>
	<defs/>
	<path id="Vector" d="M7.32 14.15C11.09 14.15 14.15 11.09 14.15 7.32C14.15 3.55 11.09 0.5 7.32 0.5C3.55 0.5 0.5 3.55 0.5 7.32C0.5 11.09 3.55 14.15 7.32 14.15Z" fill="#58AA46" fill-opacity="0.900000" fill-rule="evenodd"/>
	<path id="Vector" d="M7.32 14.15C3.55 14.15 0.5 11.09 0.5 7.32C0.5 3.55 3.55 0.5 7.32 0.5C11.09 0.5 14.15 3.55 14.15 7.32C14.15 11.09 11.09 14.15 7.32 14.15ZM9.5 5L7.25 7.25L5 9.5M5 5L7.25 7.25M7.25 7.25L9.5 9.5" stroke="#FFFFFF" stroke-opacity="1.000000" stroke-width="1.000000"/>
</svg>
