<svg width="20.000000" height="20.000000" viewBox="0 0 20 20" fill="none" xmlns="http://www.w3.org/2000/svg" xmlns:xlink="http://www.w3.org/1999/xlink">
	<desc>
			Created with Pixso.
	</desc>
	<defs/>
	<path id="Vector" d="M19.8 14.64C19.71 14.58 17.61 13.32 14.99 13.32C14.73 13.32 14.46 13.34 14.19 13.35C14.81 13.02 15.43 12.63 16 12.18C18.76 10.02 19.93 6.51 19.97 6.37C20.02 6.23 19.99 6.08 19.9 5.97C19.8 5.86 19.66 5.81 19.52 5.82C19.4 5.84 16.56 6.29 13.97 8.65C13.27 9.29 12.63 9.99 12.07 10.69C12.32 9.72 12.49 8.64 12.49 7.49C12.49 3.49 10.43 0.3 10.34 0.17C10.19 -0.06 9.8 -0.06 9.65 0.17C9.56 0.3 7.49 3.49 7.49 7.49C7.49 8.64 7.67 9.72 7.92 10.69C7.36 9.99 6.72 9.29 6.02 8.65C3.43 6.29 0.59 5.84 0.47 5.82C0.33 5.81 0.19 5.86 0.09 5.97C0 6.08 -0.03 6.23 0.02 6.37C0.06 6.51 1.23 10.02 3.99 12.18C4.56 12.63 5.18 13.02 5.8 13.35C5.53 13.34 5.26 13.32 4.99 13.32C2.38 13.32 0.28 14.58 0.19 14.64C0.07 14.71 -0.01 14.85 0 14.99C0 15.14 0.07 15.27 0.2 15.35C0.29 15.4 2.41 16.66 4.99 16.66C5.57 16.66 6.14 16.58 6.68 16.45C5.8 17.49 5.83 18.7 5.83 18.76C5.83 18.89 5.9 19.01 6 19.08C6.07 19.13 6.16 19.16 6.24 19.16C6.28 19.16 6.32 19.16 6.36 19.14C6.43 19.13 7.92 18.67 9.06 17.35C9.26 17.11 9.43 16.88 9.58 16.65L9.58 19.58C9.58 19.81 9.76 20 10 20C10.23 20 10.41 19.81 10.41 19.58L10.41 16.65C10.56 16.88 10.73 17.11 10.93 17.35C12.07 18.67 13.56 19.13 13.63 19.14C13.67 19.16 13.71 19.16 13.75 19.16C13.83 19.16 13.92 19.13 13.99 19.08C14.09 19.01 14.16 18.89 14.16 18.76C14.16 18.7 14.19 17.49 13.31 16.45C13.85 16.58 14.42 16.66 15 16.66C17.61 16.66 19.71 15.4 19.8 15.35C19.92 15.27 20 15.14 20 14.99C20 14.85 19.92 14.71 19.8 14.64ZM14.53 9.27C16.16 7.78 17.93 7.1 18.9 6.82C18.43 7.93 17.33 10.09 15.49 11.53C13.96 12.72 12.02 13.49 10.88 13.87C11.56 12.74 12.87 10.77 14.53 9.27ZM4.5 11.53C2.66 10.09 1.56 7.93 1.09 6.82C2.06 7.1 3.83 7.78 5.46 9.27C7.12 10.77 8.43 12.74 9.11 13.87C7.97 13.49 6.03 12.72 4.5 11.53ZM4.99 15.83C3.49 15.83 2.13 15.34 1.34 14.99C2.12 14.64 3.47 14.16 4.99 14.16C6.51 14.16 8.01 14.47 8.94 14.71C8.04 15.18 6.52 15.83 4.99 15.83ZM8.43 16.8C7.88 17.44 7.22 17.85 6.75 18.08C6.86 17.64 7.13 17.04 7.74 16.58C8.37 16.11 8.88 15.76 9.26 15.5C9.09 15.89 8.83 16.35 8.43 16.8ZM10.07 13.6C10.04 13.64 10.02 13.68 9.99 13.72C9.97 13.68 9.95 13.64 9.92 13.6C9.33 12.46 8.33 10.14 8.33 7.49C8.33 4.73 9.42 2.32 9.99 1.23C10.57 2.32 11.66 4.73 11.66 7.49C11.66 10.14 10.66 12.46 10.07 13.6ZM11.56 16.8C11.17 16.35 10.9 15.89 10.73 15.51C11.12 15.76 11.62 16.11 12.25 16.58C12.87 17.04 13.13 17.64 13.25 18.09C12.77 17.85 12.12 17.45 11.56 16.8ZM14.99 15.83C13.49 15.83 11.97 15.18 11.06 14.7C11.98 14.47 13.48 14.16 14.99 14.16C16.52 14.16 17.87 14.64 18.66 14.99C17.88 15.34 16.52 15.83 14.99 15.83Z" fill="#959595" fill-opacity="1.000000" fill-rule="evenodd"/>
</svg>
