<svg width="183.511353" height="27.956543" viewBox="0 0 183.511 27.9565" fill="none" xmlns="http://www.w3.org/2000/svg" xmlns:xlink="http://www.w3.org/1999/xlink">
	<desc>
			Created with Pixso.
	</desc>
	<defs/>
	<path id="Marketplace" d="M0 21.81L0 0L5.69 0L11.69 14.66L11.95 14.66L17.95 0L23.64 0L23.64 21.81L19.17 21.81L19.17 7.61L18.99 7.61L13.34 21.7L10.29 21.7L4.65 7.56L4.47 7.56L4.47 21.81L0 21.81ZM62.46 21.81L57.92 21.81L57.92 0L62.46 0L62.46 11.66L62.7 11.66L67.95 5.45L73.15 5.45L67.08 12.53L73.46 21.81L68.15 21.81L63.68 15.22L62.46 16.61L62.46 21.81ZM124.45 0L128.99 0L128.99 21.81L124.45 21.81L124.45 0ZM98.84 5.45L101.93 5.45L101.93 8.86L98.84 8.86L98.84 16.78C98.84 18.04 99.47 18.39 100.38 18.39C100.81 18.39 101.28 18.28 101.51 18.23L102.22 21.61C101.77 21.76 100.93 22 99.76 22.04C96.47 22.17 94.29 20.59 94.31 17.38L94.31 8.86L92.07 8.86L92.07 5.45L94.31 5.45L94.31 1.53L98.84 1.53L98.84 5.45ZM49.9 21.81L45.36 21.81L45.36 5.45L49.76 5.45L49.76 8.31L49.93 8.31C50.53 6.28 52.03 5.22 53.86 5.22C54.32 5.22 54.89 5.28 55.29 5.38L55.29 9.4C54.86 9.27 54 9.16 53.37 9.16C51.37 9.16 49.9 10.54 49.9 12.56L49.9 21.81ZM37.1 19.54C36.3 21.07 34.74 22.12 32.32 22.12C29.2 22.12 26.89 20.48 26.89 17.24C26.89 13.59 29.8 12.5 33.03 12.2C35.88 11.93 37 11.79 37 10.73L37 10.67C37 9.33 36.11 8.55 34.56 8.55C32.94 8.55 31.96 9.35 31.66 10.44L27.46 10.1C28.09 7.11 30.67 5.24 34.59 5.24C38.23 5.24 41.54 6.88 41.54 10.78L41.54 21.81L37.23 21.81L37.23 19.54L37.1 19.54ZM89.86 17.13C89.23 20.17 86.49 22.14 82.44 22.14C77.41 22.14 74.33 18.89 74.33 13.71C74.33 8.66 77.45 5.24 82.27 5.24C86.59 5.24 89.96 7.99 89.96 13.54L89.96 14.79L78.81 14.79L78.81 14.8C78.81 17.24 80.25 18.75 82.53 18.75C84.03 18.75 85.21 18.09 85.67 16.85L89.86 17.13ZM109.71 27.95L105.17 27.95L105.17 5.45L109.65 5.45L109.65 8.2L109.85 8.2C110.46 6.87 111.77 5.24 114.5 5.24C118.1 5.24 121.13 8.03 121.13 13.65C121.13 19.13 118.23 22.08 114.5 22.08C111.85 22.08 110.48 20.55 109.85 19.19L109.71 19.19L109.71 27.95ZM142.36 19.54C141.56 21.07 140 22.12 137.57 22.12C134.45 22.12 132.15 20.48 132.15 17.24C132.15 13.59 135.05 12.5 138.29 12.2C141.13 11.93 142.25 11.79 142.25 10.73L142.25 10.67C142.25 9.33 141.37 8.55 139.82 8.55C138.2 8.55 137.22 9.35 136.91 10.44L132.72 10.1C133.35 7.11 135.92 5.24 139.84 5.24C143.49 5.24 146.79 6.88 146.79 10.78L146.79 21.81L142.49 21.81L142.49 19.54L142.36 19.54ZM165.32 15.82C165.1 19.58 162.37 22.14 158.01 22.14C152.97 22.14 149.96 18.67 149.96 13.7C149.96 8.68 153.03 5.24 157.99 5.24C162.26 5.24 165.12 7.72 165.32 11.5L161.04 11.5C160.79 9.87 159.73 8.78 158.06 8.78C155.95 8.78 154.57 10.54 154.57 13.63C154.57 16.77 155.95 18.54 158.06 18.54C159.62 18.54 160.77 17.57 161.04 15.82L165.32 15.82ZM183.41 17.13C182.77 20.17 180.04 22.14 175.99 22.14C170.95 22.14 167.88 18.89 167.88 13.71C167.88 8.66 171 5.24 175.82 5.24C180.14 5.24 183.51 7.99 183.51 13.54L183.51 14.79L172.36 14.79L172.36 14.8C172.36 17.24 173.8 18.75 176.07 18.75C177.58 18.75 178.75 18.09 179.21 16.85L183.41 17.13ZM82.34 8.62C80.33 8.62 78.91 10.12 78.81 11.98L85.69 11.98C85.67 10.03 84.31 8.62 82.34 8.62ZM175.89 8.62C173.88 8.62 172.46 10.12 172.36 11.98L179.24 11.98C179.22 10.03 177.86 8.62 175.89 8.62ZM113.06 8.85C110.86 8.85 109.62 10.71 109.62 13.63C109.62 16.55 110.87 18.47 113.06 18.47C115.29 18.47 116.5 16.49 116.5 13.63C116.5 10.8 115.31 8.85 113.06 8.85ZM31.22 17.1C31.22 18.34 32.22 18.99 33.62 18.99C35.61 18.99 37.03 17.68 37.03 15.96L37.03 14.23C36.48 14.59 34.86 14.83 33.88 14.97C32.28 15.19 31.22 15.82 31.22 17.1ZM136.48 17.1C136.48 18.34 137.48 18.99 138.88 18.99C140.87 18.99 142.28 17.68 142.28 15.96L142.28 14.23C141.74 14.59 140.12 14.83 139.13 14.97C137.54 15.19 136.48 15.82 136.48 17.1Z" fill="#FFFFFF" fill-opacity="1.000000" fill-rule="evenodd"/>
</svg>
