<svg width="24.000000" height="24.000000" viewBox="0 0 24 24" fill="none" xmlns="http://www.w3.org/2000/svg" xmlns:xlink="http://www.w3.org/1999/xlink">
	<defs>
		<clipPath id="clip2_654">
			<rect id="Search" rx="-0.500000" width="23.000000" height="23.000000" transform="translate(0.500000 0.500000)" fill="white" fill-opacity="0"/>
		</clipPath>
	</defs>
	<g clip-path="url(#clip2_654)">
		<path id="search" d="M21.72 20.31L18.01 16.63C19.45 14.83 20.15 12.55 19.96 10.26C19.77 7.96 18.71 5.83 17 4.29C15.28 2.76 13.04 1.94 10.74 2C8.44 2.06 6.25 3 4.63 4.63C3 6.26 2.06 8.45 1.99 10.75C1.93 13.05 2.75 15.29 4.29 17C5.82 18.72 7.96 19.78 10.25 19.97C12.55 20.15 14.82 19.46 16.62 18.02L20.3 21.7C20.39 21.79 20.5 21.87 20.62 21.93C20.74 21.98 20.87 22.01 21.01 22.02C21.14 22.02 21.27 22 21.39 21.95C21.52 21.9 21.63 21.83 21.73 21.73C21.82 21.64 21.9 21.53 21.95 21.41C22 21.28 22.03 21.15 22.03 21.02C22.02 20.89 22 20.75 21.94 20.63C21.89 20.51 21.82 20.4 21.72 20.31ZM11.01 18.02C9.63 18.02 8.27 17.61 7.12 16.84C5.97 16.07 5.07 14.97 4.54 13.7C4.01 12.42 3.87 11.01 4.14 9.65C4.41 8.29 5.08 7.05 6.06 6.07C7.04 5.09 8.29 4.42 9.64 4.15C11 3.88 12.41 4.02 13.69 4.55C14.97 5.08 16.06 5.98 16.83 7.13C17.6 8.28 18.01 9.63 18.01 11.02C18.01 12.87 17.27 14.65 15.96 15.97C14.65 17.28 12.87 18.02 11.01 18.02Z" fill="#959595" fill-opacity="1.000000" fill-rule="nonzero"/>
	</g>
</svg>
