<svg width="22.574219" height="8.341660" viewBox="0 0 22.5742 8.34166" fill="none" xmlns="http://www.w3.org/2000/svg" xmlns:xlink="http://www.w3.org/1999/xlink">
	<desc>
			Created with Pixso.
	</desc>
	<defs>
		<linearGradient x1="22.574211" y1="0.000004" x2="1.396919" y2="8.341663" id="paint_linear_1_720_0" gradientUnits="userSpaceOnUse">
			<stop stop-color="#6BAB2B"/>
			<stop offset="1.000000" stop-color="#84D52C" stop-opacity="0.000000"/>
		</linearGradient>
	</defs>
	<path id="THC" d="M17.22 7.89Q18.08 8.34 19.18 8.34C19.64 8.34 20.06 8.27 20.45 8.13C20.85 7.99 21.18 7.79 21.45 7.55C21.72 7.31 21.94 7.06 22.12 6.81C22.3 6.56 22.45 6.28 22.57 5.98L20.62 5.01C20.52 5.33 20.34 5.61 20.07 5.85Q19.81 6.06 19.52 6.14Q19.35 6.18 19.18 6.18Q18.72 6.18 18.36 6Q18.08 5.85 17.87 5.6Q17.72 5.44 17.62 5.26Q17.36 4.78 17.36 4.17Q17.36 3.55 17.62 3.07Q17.72 2.89 17.87 2.73Q18.08 2.48 18.36 2.34Q18.72 2.15 19.18 2.15Q19.34 2.15 19.5 2.19Q19.8 2.27 20.07 2.5C20.34 2.72 20.52 3 20.62 3.32L22.57 2.34C22.3 1.68 21.89 1.12 21.34 0.67C20.79 0.22 20.07 0 19.18 0Q18.04 0 17.16 0.46Q16.66 0.73 16.23 1.16Q15.88 1.51 15.63 1.92Q15.07 2.88 15.07 4.17Q15.07 5.41 15.6 6.36Q15.86 6.8 16.23 7.18Q16.68 7.62 17.22 7.89ZM4.26 8.19L2 8.19L2 2.26L0 2.26L0 0.13L6.26 0.13L6.26 2.26L4.26 2.26L4.26 8.19ZM14.26 8.19L12 8.19L12 5.11L9.32 5.11L9.32 8.19L7.06 8.19L7.06 0.13L9.32 0.13L9.32 2.98L12 2.98L12 0.13L14.26 0.13L14.26 8.19Z" fill="#84D52C" fill-opacity="1.000000" fill-rule="evenodd"/>
	<path id="THC" d="M17.22 7.89Q18.08 8.34 19.18 8.34C19.64 8.34 20.06 8.27 20.45 8.13C20.85 7.99 21.18 7.79 21.45 7.55C21.72 7.31 21.94 7.06 22.12 6.81C22.3 6.56 22.45 6.28 22.57 5.98L20.62 5.01C20.52 5.33 20.34 5.61 20.07 5.85Q19.81 6.06 19.52 6.14Q19.35 6.18 19.18 6.18Q18.72 6.18 18.36 6Q18.08 5.85 17.87 5.6Q17.72 5.44 17.62 5.26Q17.36 4.78 17.36 4.17Q17.36 3.55 17.62 3.07Q17.72 2.89 17.87 2.73Q18.08 2.48 18.36 2.34Q18.72 2.15 19.18 2.15Q19.34 2.15 19.5 2.19Q19.8 2.27 20.07 2.5C20.34 2.72 20.52 3 20.62 3.32L22.57 2.34C22.3 1.68 21.89 1.12 21.34 0.67C20.79 0.22 20.07 0 19.18 0Q18.04 0 17.16 0.46Q16.66 0.73 16.23 1.16Q15.88 1.51 15.63 1.92Q15.07 2.88 15.07 4.17Q15.07 5.41 15.6 6.36Q15.86 6.8 16.23 7.18Q16.68 7.62 17.22 7.89ZM4.26 8.19L2 8.19L2 2.26L0 2.26L0 0.13L6.26 0.13L6.26 2.26L4.26 2.26L4.26 8.19ZM14.26 8.19L12 8.19L12 5.11L9.32 5.11L9.32 8.19L7.06 8.19L7.06 0.13L9.32 0.13L9.32 2.98L12 2.98L12 0.13L14.26 0.13L14.26 8.19Z" fill="url(#paint_linear_1_720_0)" fill-opacity="0.200000" fill-rule="evenodd"/>
</svg>
