<svg width="26" height="25" viewBox="0 0 26 25" fill="none" xmlns="http://www.w3.org/2000/svg">
<path fill-rule="evenodd" clip-rule="evenodd" d="M10.0189 3.72596H23.8774C24.4297 3.72596 24.8774 4.17368 24.8774 4.72596C24.8774 5.27824 24.4297 5.72596 23.8774 5.72596H9.9797C9.62188 7.25269 8.53341 8.36307 7.24619 8.36307C5.95896 8.36307 4.87049 7.25269 4.51267 5.72596H2.12242C1.57014 5.72596 1.12242 5.27824 1.12242 4.72596C1.12242 4.17368 1.57014 3.72596 2.12242 3.72596H4.47345C4.78418 2.10517 5.90774 0.904663 7.24619 0.904663C8.58463 0.904663 9.70819 2.10517 10.0189 3.72596ZM2.12242 12.2498C1.57014 12.2498 1.12242 12.6975 1.12242 13.2498C1.12242 13.8021 1.57014 14.2498 2.12242 14.2498H13.6464C14.1051 15.5097 15.0893 16.3808 16.2294 16.3808C17.3696 16.3808 18.3538 15.5097 18.8125 14.2498H23.8774C24.4297 14.2498 24.8774 13.8021 24.8774 13.2498C24.8774 12.6975 24.4297 12.2498 23.8774 12.2498H19.0711C18.9175 10.3792 17.7038 8.92243 16.2294 8.92243C14.755 8.92243 13.5414 10.3792 13.3878 12.2498H2.12242ZM0.939087 21.1755C0.939087 20.6232 1.3868 20.1755 1.93909 20.1755H9.39199C9.72692 18.6015 10.8331 17.4463 12.1461 17.4463C13.4591 17.4463 14.5653 18.6015 14.9002 20.1755H24.061C24.6132 20.1755 25.061 20.6232 25.061 21.1755C25.061 21.7278 24.6132 22.1755 24.061 22.1755H14.9002C14.5652 23.7495 13.4591 24.9047 12.1461 24.9047C10.8332 24.9047 9.72699 23.7495 9.39202 22.1755H1.93909C1.3868 22.1755 0.939087 21.7278 0.939087 21.1755Z" fill="#84D52C"/>
<path fill-rule="evenodd" clip-rule="evenodd" d="M10.0189 3.72596H23.8774C24.4297 3.72596 24.8774 4.17368 24.8774 4.72596C24.8774 5.27824 24.4297 5.72596 23.8774 5.72596H9.9797C9.62188 7.25269 8.53341 8.36307 7.24619 8.36307C5.95896 8.36307 4.87049 7.25269 4.51267 5.72596H2.12242C1.57014 5.72596 1.12242 5.27824 1.12242 4.72596C1.12242 4.17368 1.57014 3.72596 2.12242 3.72596H4.47345C4.78418 2.10517 5.90774 0.904663 7.24619 0.904663C8.58463 0.904663 9.70819 2.10517 10.0189 3.72596ZM2.12242 12.2498C1.57014 12.2498 1.12242 12.6975 1.12242 13.2498C1.12242 13.8021 1.57014 14.2498 2.12242 14.2498H13.6464C14.1051 15.5097 15.0893 16.3808 16.2294 16.3808C17.3696 16.3808 18.3538 15.5097 18.8125 14.2498H23.8774C24.4297 14.2498 24.8774 13.8021 24.8774 13.2498C24.8774 12.6975 24.4297 12.2498 23.8774 12.2498H19.0711C18.9175 10.3792 17.7038 8.92243 16.2294 8.92243C14.755 8.92243 13.5414 10.3792 13.3878 12.2498H2.12242ZM0.939087 21.1755C0.939087 20.6232 1.3868 20.1755 1.93909 20.1755H9.39199C9.72692 18.6015 10.8331 17.4463 12.1461 17.4463C13.4591 17.4463 14.5653 18.6015 14.9002 20.1755H24.061C24.6132 20.1755 25.061 20.6232 25.061 21.1755C25.061 21.7278 24.6132 22.1755 24.061 22.1755H14.9002C14.5652 23.7495 13.4591 24.9047 12.1461 24.9047C10.8332 24.9047 9.72699 23.7495 9.39202 22.1755H1.93909C1.3868 22.1755 0.939087 21.7278 0.939087 21.1755Z" fill="url(#paint0_linear_3674_555)" fill-opacity="0.2"/>
<defs>
<linearGradient id="paint0_linear_3674_555" x1="25.061" y1="0.904666" x2="1.0677" y2="2.35614" gradientUnits="userSpaceOnUse">
<stop stop-color="#6BAB2B"/>
<stop offset="1" stop-color="#84D52C" stop-opacity="0"/>
</linearGradient>
</defs>
</svg>
