<svg width="12.000000" height="7.000000" viewBox="0 0 12 7" fill="none" xmlns="http://www.w3.org/2000/svg" xmlns:xlink="http://www.w3.org/1999/xlink">
	<desc>
			Created with Pixso.
	</desc>
	<defs/>
	<path id="arrow" d="M6 0C6.11 -0.01 6.22 0.02 6.32 0.06C6.42 0.1 6.51 0.17 6.59 0.25L11.76 5.53C11.91 5.7 12 5.91 12 6.14C11.99 6.37 11.9 6.58 11.75 6.74C11.59 6.9 11.38 6.99 11.16 6.99C10.94 7 10.73 6.91 10.57 6.75L6 2.07L1.42 6.75C1.26 6.91 1.05 7 0.83 6.99C0.61 6.99 0.4 6.9 0.24 6.74C0.09 6.58 0 6.37 3.05e-5 6.14C-0.01 5.91 0.08 5.7 0.23 5.53L5.4 0.25C5.48 0.17 5.57 0.1 5.67 0.06C5.77 0.02 5.88 -0.01 6 0Z" fill="#959595" fill-opacity="1.000000" fill-rule="nonzero"/>
</svg>
