<svg width="22.000000" height="7.247444" viewBox="0 0 22 7.24744" fill="none" xmlns="http://www.w3.org/2000/svg" xmlns:xlink="http://www.w3.org/1999/xlink">
	<desc>
			Created with Pixso.
	</desc>
	<defs>
		<linearGradient x1="21.999994" y1="-0.000004" x2="1.361391" y2="7.247448" id="paint_linear_1_728_0" gradientUnits="userSpaceOnUse">
			<stop stop-color="#6BAB2B"/>
			<stop offset="1.000000" stop-color="#84D52C" stop-opacity="0.000000"/>
		</linearGradient>
	</defs>
	<path id="CBD" d="M3.85 7.24Q2.69 7.24 1.81 6.75Q1.42 6.54 1.09 6.23Q0.65 5.83 0.39 5.34Q0 4.58 0 3.62Q0 2.62 0.41 1.86Q0.67 1.39 1.09 1Q1.4 0.72 1.76 0.51L1.76 0.51Q2.66 0 3.85 0Q5.11 0 5.88 0.58Q6.37 0.96 6.71 1.45Q6.9 1.72 7.03 2.03L5.2 2.88Q5.17 2.77 5.11 2.67Q4.97 2.38 4.69 2.17Q4.46 1.98 4.2 1.91Q4.03 1.86 3.85 1.86Q3.37 1.86 3 2.07Q2.79 2.19 2.62 2.37Q2.45 2.55 2.34 2.76Q2.15 3.14 2.15 3.62Q2.15 4.1 2.34 4.47Q2.45 4.69 2.62 4.87Q2.79 5.05 3 5.17Q3.37 5.37 3.85 5.37Q4.04 5.37 4.22 5.32Q4.47 5.25 4.69 5.08Q4.99 4.84 5.13 4.53Q5.18 4.45 5.2 4.35L7.03 5.19Q6.92 5.44 6.78 5.67L6.78 5.67Q6.7 5.8 6.61 5.92C6.44 6.14 6.23 6.35 5.98 6.56Q5.6 6.87 5.05 7.06Q4.5 7.24 3.85 7.24ZM12.1 7.12L7.7 7.12L7.7 0.11L11.95 0.11Q12.87 0.11 13.4 0.57L13.4 0.57Q13.45 0.61 13.49 0.66Q13.85 1.02 13.97 1.45Q14.03 1.67 14.03 1.9C14.03 2.32 13.92 2.68 13.69 2.97Q13.53 3.18 13.31 3.31Q13.1 3.45 12.83 3.5C13.22 3.56 13.54 3.75 13.79 4.07C14.04 4.39 14.17 4.77 14.17 5.22C14.17 5.74 13.99 6.19 13.63 6.56C13.27 6.93 12.76 7.12 12.1 7.12ZM15.02 7.12L18.16 7.12Q19.57 7.12 20.55 6.47Q20.74 6.34 20.92 6.18Q21.24 5.9 21.47 5.56Q22 4.76 22 3.61Q22 2.45 21.46 1.65Q21.24 1.32 20.92 1.05Q20.76 0.9 20.57 0.78Q19.59 0.11 18.15 0.11L15.02 0.11L15.02 7.12ZM11.46 2.69C11.57 2.69 11.67 2.66 11.75 2.58C11.84 2.49 11.88 2.39 11.88 2.27Q11.88 2.16 11.83 2.08Q11.8 2.03 11.75 1.99C11.67 1.91 11.57 1.88 11.46 1.88L9.82 1.88L9.82 2.69L11.46 2.69ZM19.38 4.78C19.07 5.11 18.66 5.27 18.15 5.27L17.14 5.27L17.14 1.96L18.16 1.96C18.71 1.96 19.12 2.11 19.41 2.41C19.7 2.71 19.84 3.11 19.84 3.61Q19.84 4 19.69 4.32Q19.58 4.57 19.38 4.78ZM11.52 5.35C11.67 5.35 11.79 5.31 11.88 5.24C11.97 5.15 12.01 5.04 12.01 4.91Q12.01 4.81 11.98 4.73Q11.94 4.66 11.88 4.6C11.79 4.5 11.67 4.46 11.52 4.46L9.82 4.46L9.82 5.35L11.52 5.35Z" fill="#84D52C" fill-opacity="1.000000" fill-rule="evenodd"/>
	<path id="CBD" d="M3.85 7.24Q2.69 7.24 1.81 6.75Q1.42 6.54 1.09 6.23Q0.65 5.83 0.39 5.34Q0 4.58 0 3.62Q0 2.62 0.41 1.86Q0.67 1.39 1.09 1Q1.4 0.72 1.76 0.51L1.76 0.51Q2.66 0 3.85 0Q5.11 0 5.88 0.58Q6.37 0.96 6.71 1.45Q6.9 1.72 7.03 2.03L5.2 2.88Q5.17 2.77 5.11 2.67Q4.97 2.38 4.69 2.17Q4.46 1.98 4.2 1.91Q4.03 1.86 3.85 1.86Q3.37 1.86 3 2.07Q2.79 2.19 2.62 2.37Q2.45 2.55 2.34 2.76Q2.15 3.14 2.15 3.62Q2.15 4.1 2.34 4.47Q2.45 4.69 2.62 4.87Q2.79 5.05 3 5.17Q3.37 5.37 3.85 5.37Q4.04 5.37 4.22 5.32Q4.47 5.25 4.69 5.08Q4.99 4.84 5.13 4.53Q5.18 4.45 5.2 4.35L7.03 5.19Q6.92 5.44 6.78 5.67L6.78 5.67Q6.7 5.8 6.61 5.92C6.44 6.14 6.23 6.35 5.98 6.56Q5.6 6.87 5.05 7.06Q4.5 7.24 3.85 7.24ZM12.1 7.12L7.7 7.12L7.7 0.11L11.95 0.11Q12.87 0.11 13.4 0.57L13.4 0.57Q13.45 0.61 13.49 0.66Q13.85 1.02 13.97 1.45Q14.03 1.67 14.03 1.9C14.03 2.32 13.92 2.68 13.69 2.97Q13.53 3.18 13.31 3.31Q13.1 3.45 12.83 3.5C13.22 3.56 13.54 3.75 13.79 4.07C14.04 4.39 14.17 4.77 14.17 5.22C14.17 5.74 13.99 6.19 13.63 6.56C13.27 6.93 12.76 7.12 12.1 7.12ZM15.02 7.12L18.16 7.12Q19.57 7.12 20.55 6.47Q20.74 6.34 20.92 6.18Q21.24 5.9 21.47 5.56Q22 4.76 22 3.61Q22 2.45 21.46 1.65Q21.24 1.32 20.92 1.05Q20.76 0.9 20.57 0.78Q19.59 0.11 18.15 0.11L15.02 0.11L15.02 7.12ZM11.46 2.69C11.57 2.69 11.67 2.66 11.75 2.58C11.84 2.49 11.88 2.39 11.88 2.27Q11.88 2.16 11.83 2.08Q11.8 2.03 11.75 1.99C11.67 1.91 11.57 1.88 11.46 1.88L9.82 1.88L9.82 2.69L11.46 2.69ZM19.38 4.78C19.07 5.11 18.66 5.27 18.15 5.27L17.14 5.27L17.14 1.96L18.16 1.96C18.71 1.96 19.12 2.11 19.41 2.41C19.7 2.71 19.84 3.11 19.84 3.61Q19.84 4 19.69 4.32Q19.58 4.57 19.38 4.78ZM11.52 5.35C11.67 5.35 11.79 5.31 11.88 5.24C11.97 5.15 12.01 5.04 12.01 4.91Q12.01 4.81 11.98 4.73Q11.94 4.66 11.88 4.6C11.79 4.5 11.67 4.46 11.52 4.46L9.82 4.46L9.82 5.35L11.52 5.35Z" fill="url(#paint_linear_1_728_0)" fill-opacity="0.200000" fill-rule="evenodd"/>
</svg>
