<svg width="24.000000" height="24.000000" viewBox="0 0 24 24" fill="none" xmlns="http://www.w3.org/2000/svg" xmlns:xlink="http://www.w3.org/1999/xlink">
	<desc>
			Created with Pixso.
	</desc>
	<defs>
		<linearGradient x1="23.999996" y1="0.000004" x2="1.485149" y2="24.000010" id="paint_linear_3_173_0" gradientUnits="userSpaceOnUse">
			<stop stop-color="#6BAB2B"/>
			<stop offset="1.000000" stop-color="#84D52C" stop-opacity="0.000000"/>
		</linearGradient>
		<linearGradient x1="20.249996" y1="5.250002" x2="4.771042" y2="18.000004" id="paint_linear_3_174_0" gradientUnits="userSpaceOnUse">
			<stop stop-color="#6BAB2B"/>
			<stop offset="1.000000" stop-color="#84D52C" stop-opacity="0.000000"/>
		</linearGradient>
	</defs>
	<path id="Vector" d="M6 0.75C6 0.55 5.92 0.36 5.78 0.21C5.63 0.07 5.44 0 5.25 0C5.05 0 4.86 0.07 4.71 0.21C4.57 0.36 4.5 0.55 4.5 0.75L4.5 1.5L3 1.5C2.2 1.5 1.44 1.81 0.87 2.37C0.31 2.94 0 3.7 0 4.5L0 21C0 21.79 0.31 22.55 0.87 23.12C1.44 23.68 2.2 24 3 24L21 24C21.79 24 22.55 23.68 23.12 23.12C23.68 22.55 24 21.79 24 21L24 4.5C24 3.7 23.68 2.94 23.12 2.37C22.55 1.81 21.79 1.5 21 1.5L19.5 1.5L19.5 0.75C19.5 0.55 19.42 0.36 19.28 0.21C19.13 0.07 18.94 0 18.75 0C18.55 0 18.36 0.07 18.21 0.21C18.07 0.36 18 0.55 18 0.75L18 1.5L6 1.5L6 0.75ZM3 3C2.6 3 2.22 3.15 1.93 3.43C1.65 3.72 1.5 4.1 1.5 4.5L1.5 21C1.5 21.39 1.65 21.77 1.93 22.06C2.22 22.34 2.6 22.5 3 22.5L21 22.5C21.39 22.5 21.77 22.34 22.06 22.06C22.34 21.77 22.5 21.39 22.5 21L22.5 4.5C22.5 4.1 22.34 3.72 22.06 3.43C21.77 3.15 21.39 3 21 3L3 3Z" fill="#84D52C" fill-opacity="1.000000" fill-rule="evenodd"/>
	<path id="Vector" d="M6 0.75C6 0.55 5.92 0.36 5.78 0.21C5.63 0.07 5.44 0 5.25 0C5.05 0 4.86 0.07 4.71 0.21C4.57 0.36 4.5 0.55 4.5 0.75L4.5 1.5L3 1.5C2.2 1.5 1.44 1.81 0.87 2.37C0.31 2.94 0 3.7 0 4.5L0 21C0 21.79 0.31 22.55 0.87 23.12C1.44 23.68 2.2 24 3 24L21 24C21.79 24 22.55 23.68 23.12 23.12C23.68 22.55 24 21.79 24 21L24 4.5C24 3.7 23.68 2.94 23.12 2.37C22.55 1.81 21.79 1.5 21 1.5L19.5 1.5L19.5 0.75C19.5 0.55 19.42 0.36 19.28 0.21C19.13 0.07 18.94 0 18.75 0C18.55 0 18.36 0.07 18.21 0.21C18.07 0.36 18 0.55 18 0.75L18 1.5L6 1.5L6 0.75ZM3 3C2.6 3 2.22 3.15 1.93 3.43C1.65 3.72 1.5 4.1 1.5 4.5L1.5 21C1.5 21.39 1.65 21.77 1.93 22.06C2.22 22.34 2.6 22.5 3 22.5L21 22.5C21.39 22.5 21.77 22.34 22.06 22.06C22.34 21.77 22.5 21.39 22.5 21L22.5 4.5C22.5 4.1 22.34 3.72 22.06 3.43C21.77 3.15 21.39 3 21 3L3 3Z" fill="url(#paint_linear_3_173_0)" fill-opacity="0.200000" fill-rule="evenodd"/>
	<path id="Vector" d="M3.75 6C3.75 5.8 3.82 5.61 3.96 5.46C4.11 5.32 4.3 5.25 4.5 5.25L19.5 5.25C19.69 5.25 19.88 5.32 20.03 5.46C20.17 5.61 20.25 5.8 20.25 6L20.25 7.5C20.25 7.69 20.17 7.88 20.03 8.03C19.88 8.17 19.69 8.25 19.5 8.25L4.5 8.25C4.3 8.25 4.11 8.17 3.96 8.03C3.82 7.88 3.75 7.69 3.75 7.5L3.75 6ZM16.5 11.25C16.5 11.05 16.57 10.86 16.71 10.71C16.86 10.57 17.05 10.5 17.25 10.5L18.75 10.5C18.94 10.5 19.13 10.57 19.28 10.71C19.42 10.86 19.5 11.05 19.5 11.25L19.5 12.75C19.5 12.94 19.42 13.13 19.28 13.28C19.13 13.42 18.94 13.5 18.75 13.5L17.25 13.5C17.05 13.5 16.86 13.42 16.71 13.28C16.57 13.13 16.5 12.94 16.5 12.75L16.5 11.25ZM12 11.25C12 11.05 12.07 10.86 12.21 10.71C12.36 10.57 12.55 10.5 12.75 10.5L14.25 10.5C14.44 10.5 14.63 10.57 14.78 10.71C14.92 10.86 15 11.05 15 11.25L15 12.75C15 12.94 14.92 13.13 14.78 13.28C14.63 13.42 14.44 13.5 14.25 13.5L12.75 13.5C12.55 13.5 12.36 13.42 12.21 13.28C12.07 13.13 12 12.94 12 12.75L12 11.25ZM4.5 15.75C4.5 15.55 4.57 15.36 4.71 15.21C4.86 15.07 5.05 15 5.25 15L6.75 15C6.94 15 7.13 15.07 7.28 15.21C7.42 15.36 7.5 15.55 7.5 15.75L7.5 17.25C7.5 17.44 7.42 17.63 7.28 17.78C7.13 17.92 6.94 18 6.75 18L5.25 18C5.05 18 4.86 17.92 4.71 17.78C4.57 17.63 4.5 17.44 4.5 17.25L4.5 15.75ZM9 15.75C9 15.55 9.07 15.36 9.21 15.21C9.36 15.07 9.55 15 9.75 15L11.25 15C11.44 15 11.63 15.07 11.78 15.21C11.92 15.36 12 15.55 12 15.75L12 17.25C12 17.44 11.92 17.63 11.78 17.78C11.63 17.92 11.44 18 11.25 18L9.75 18C9.55 18 9.36 17.92 9.21 17.78C9.07 17.63 9 17.44 9 17.25L9 15.75Z" fill="#84D52C" fill-opacity="1.000000" fill-rule="nonzero"/>
	<path id="Vector" d="M3.75 6C3.75 5.8 3.82 5.61 3.96 5.46C4.11 5.32 4.3 5.25 4.5 5.25L19.5 5.25C19.69 5.25 19.88 5.32 20.03 5.46C20.17 5.61 20.25 5.8 20.25 6L20.25 7.5C20.25 7.69 20.17 7.88 20.03 8.03C19.88 8.17 19.69 8.25 19.5 8.25L4.5 8.25C4.3 8.25 4.11 8.17 3.96 8.03C3.82 7.88 3.75 7.69 3.75 7.5L3.75 6ZM16.5 11.25C16.5 11.05 16.57 10.86 16.71 10.71C16.86 10.57 17.05 10.5 17.25 10.5L18.75 10.5C18.94 10.5 19.13 10.57 19.28 10.71C19.42 10.86 19.5 11.05 19.5 11.25L19.5 12.75C19.5 12.94 19.42 13.13 19.28 13.28C19.13 13.42 18.94 13.5 18.75 13.5L17.25 13.5C17.05 13.5 16.86 13.42 16.71 13.28C16.57 13.13 16.5 12.94 16.5 12.75L16.5 11.25ZM12 11.25C12 11.05 12.07 10.86 12.21 10.71C12.36 10.57 12.55 10.5 12.75 10.5L14.25 10.5C14.44 10.5 14.63 10.57 14.78 10.71C14.92 10.86 15 11.05 15 11.25L15 12.75C15 12.94 14.92 13.13 14.78 13.28C14.63 13.42 14.44 13.5 14.25 13.5L12.75 13.5C12.55 13.5 12.36 13.42 12.21 13.28C12.07 13.13 12 12.94 12 12.75L12 11.25ZM4.5 15.75C4.5 15.55 4.57 15.36 4.71 15.21C4.86 15.07 5.05 15 5.25 15L6.75 15C6.94 15 7.13 15.07 7.28 15.21C7.42 15.36 7.5 15.55 7.5 15.75L7.5 17.25C7.5 17.44 7.42 17.63 7.28 17.78C7.13 17.92 6.94 18 6.75 18L5.25 18C5.05 18 4.86 17.92 4.71 17.78C4.57 17.63 4.5 17.44 4.5 17.25L4.5 15.75ZM9 15.75C9 15.55 9.07 15.36 9.21 15.21C9.36 15.07 9.55 15 9.75 15L11.25 15C11.44 15 11.63 15.07 11.78 15.21C11.92 15.36 12 15.55 12 15.75L12 17.25C12 17.44 11.92 17.63 11.78 17.78C11.63 17.92 11.44 18 11.25 18L9.75 18C9.55 18 9.36 17.92 9.21 17.78C9.07 17.63 9 17.44 9 17.25L9 15.75Z" fill="url(#paint_linear_3_174_0)" fill-opacity="0.200000" fill-rule="nonzero"/>
</svg>
